<?xml version="1.0" encoding="utf-8"?><svg width="276" height="216" viewBox="0 0 276 216" xmlns="http://www.w3.org/2000/svg" xmlns:xlink="http://www.w3.org/1999/xlink"><svg id="logo" viewBox="-1 -1 276 216" width="276" height="216"><style>.ast0{fill:#fff}.ast1{fill:#fffefd}</style><path class="ast0" d="M185.4 22.3c0 4.2-5.2 12.3-15.6 24.2-10.4 11.9-20.5 21.5-30.4 28.6-7.5 16.2-15.2 28-23.1 35.4s-18.7 12.9-32.1 16.3c23.7 6.3 37.9 9.9 42.6 10.9s9.2 1.6 13.5 1.6c6.2 0 6.5 1.8 11.5-2.7.5-.3-.5 1.2-.3 1.2.3.1.5-.1.5.1 0 .9.9 0 .2.4-6.2 3.3-12.7 5-23.8 5-8.2 0-16-.8-23.6-2.3-7.6-1.5-19.1-4.8-34.6-9.7-9.9 2-20.2 2.9-30.8 2.9-18.7 0-28-2.8-28-8.5 0-5.3 7.1-8 21.5-8 11.1 0 27.6 2.8 49.6 8.5 6.6-2.5 12.4-6.3 17.5-11.3 5.1-5 11.5-13.3 19.3-24.8-17.8 15.4-34.4 23-49.8 23-10.5 0-18.9-3.1-25.1-9.2C38.2 97.8 35 89.5 35 79c0-16 7.6-31.2 22.9-45.5S89.3 12 106.4 12c7.9 0 14.2 2 18.8 6s7 9.5 7 16.3c0 12.1-5.7 24.6-17.2 37.6S92.6 91.3 81.9 91.3c-4.5 0-8.4-1.4-11.5-4.2-3.1-2.8-4.7-6.3-4.7-10.5 0-3.2 1-5.9 3-8.3 2-2.3 4.4-3.5 7.1-3.5 3.7 0 5.5 1.8 5.5 5.4 0 2-.7 3.7-2.2 5.2-1.4 1.5-3 2.3-4.8 2.3-2.9 0-4.3-1.3-4.2-4 .1-1.7-.2-2.6-.6-2.6-1.3 0-2 1.8-2 5.5s1.4 6.8 4.2 9.3c2.8 2.5 6.4 3.7 10.6 3.7 9.8 0 20.3-6.4 31.4-19.1 11.1-12.7 16.7-24.7 16.7-36 0-6.1-2.1-11.1-6.3-15-4.2-3.9-9.6-5.9-16.1-5.9-15.8 0-30.9 7.8-45.4 23.5C48.3 52.7 41 69 41 86c0 8 2.6 14.2 7.7 18.8 5.2 4.5 12.2 6.8 21.2 6.8 7.8 0 15.5-1.9 23.1-5.7 7.7-3.8 17.1-10.4 28.3-19.8 9.4-15.5 16.2-26.3 20.4-32.3 4-5.8 8.9-11.6 14.6-17.5 11-11.4 19.5-17.2 25.3-17.2 2.6 0 3.8 1.1 3.8 3.2zM67.2 130.4c-20.9-6.6-35.2-9.8-42.7-9.8-7.8 0-11.7 1.7-11.7 5.1 0 4.6 9.2 6.9 27.5 6.9 9.9 0 18.9-.7 26.9-2.2zM183.9 22.3c0-1.3-.7-2-2.2-2-4.4 0-10.5 4.5-18.2 13.4-6.8 8-14.5 20.9-22.9 38.7 10.2-8.2 20-17.7 29.3-28.5 9.3-10.7 14-18 14-21.6z"/><path class="ast0" d="M203.9 111c0 .9-1.7 3.2-5.2 6.6-5.2 5.2-10 7.8-14.3 7.8-1.8 0-3.5-.4-4.9-1.1-7.8 11-15.1 16.6-22 16.6-3.6 0-6.6-1.5-9.1-4.4-2.5-2.9-3.8-6.4-3.8-10.5 0-9.1 6-17.9 17.9-26.3 8.4-6 15.3-8.9 20.7-8.9 5.1 0 7.6 2.7 7.6 8.2 0 6.8-3.6 15-10.7 24.5 1.2.7 2.5 1.1 4 1.1 2.7 0 5.8-1.2 9.3-3.7s6.5-5.4 8.7-8.9c.7-.8 1.1-1.2 1.4-1.2.3-.2.4-.1.4.2zm-14.4-12c0-4.8-2.2-7.2-6.5-7.2-5.4 0-11.9 5.1-19.7 15.4-7.7 10.3-11.6 18.9-11.6 26 0 4.1 2 6.1 5.8 6.1 6.4 0 13.3-5.3 20.9-15.8-1.7-1.9-2.6-3.8-2.6-5.8 0-2.9 1.1-5.9 3.5-8.9 2.3-3.1 4.5-4.6 6.7-4.6.9 0 1.6.6 2 1.8 1-2.1 1.5-4.4 1.5-7z"/><path class="ast1" d="M264.4 46.2c0 6-4.2 13.4-12.5 22.4-8.3 9-19.3 17.8-32.8 26.4h18.4l-1.2 1.5H218l-8.2 15.9c-10 19.7-18.5 34.6-25.6 44.6-7.1 10-15.3 18.9-24.5 26.8C146.9 194.6 135 200 124 200c-4.9 0-7.3-.7-7.3-2.2 0-.7.4-1 1.1-1 .5 0 .9.1 1.2.2 2.4.7 4.6 1 6.8 1 8.9 0 17.9-4 27-12.1 5.6-5 10.4-10.8 14.6-17.5 3.4-5.3 11.6-19.9 24.4-43.8l15.3-28.1h-10.6l.8-1.5H208c8.5-14.5 17.8-27.1 28.1-37.7s18.2-15.9 23.7-15.9c3.1.1 4.6 1.7 4.6 4.8zm-1.2-.2c0-2.2-1.1-3.3-3.3-3.3-5 0-11.9 5.8-20.6 17.5C235 66 228.5 77 219.9 93.1c10.9-7.6 20.8-16.3 29.8-26.1s13.5-16.8 13.5-21z"/></svg></svg>